<svg xmlns="http://www.w3.org/2000/svg" viewBox="0 0 64 64" fill="none">
  <rect width="64" height="64" rx="12" fill="#0B1220"/>

  <!-- hazard triangle -->
  <path
    d="M32 11 L55 51 H9 Z"
    stroke="#E8EEF7"
    stroke-width="2.75"
    stroke-linejoin="round"
    fill="none"
  />

  <!-- E (left of !) -->
  <path
    fill="#E8EEF7"
    d="M17.2 32.2h7.4v1.9h-5.3v3.1h4.8v1.9h-4.8v3.2h5.4v1.9h-7.5z"
  />

  <!-- ! (center, accent) -->
  <rect x="30.35" y="31.6" width="3.3" height="9.2" rx="0.6" fill="#3DDC97"/>
  <circle cx="32" cy="44.6" r="1.85" fill="#3DDC97"/>

  <!-- B (right of !) -->
  <path
    fill="#E8EEF7"
    d="M39.4 32.2h4.2c2.35 0 3.85 1.15 3.85 3.05 0 1.35-.75 2.35-1.95 2.8 1.45.45 2.35 1.55 2.35 3.15 0 2.05-1.6 3.2-4.15 3.2h-4.3zm2.2 1.85v3.05h1.85c1.15 0 1.8-.55 1.8-1.55s-.65-1.5-1.8-1.5zm0 4.9v3.45h2.05c1.25 0 2-.6 2-1.7s-.75-1.75-2.05-1.75z"
  />
</svg>
